<svg xmlns="http://www.w3.org/2000/svg" viewBox="0 0 586.89 93.39"><title>forrester_logo</title><g id="Layer_2" data-name="Layer 2"><g id="new"><path d="M577.71,43.86a9.18,9.18,0,1,1,9.18-9.18A9.18,9.18,0,0,1,577.71,43.86Zm0-17.41a8.22,8.22,0,1,0,8.12,8.22A8.24,8.24,0,0,0,577.71,26.45Zm2.44,13.05-2.51-4.13H576v4.13h-1.14V29.58h3.25a3,3,0,0,1,3.15,2.92,2.83,2.83,0,0,1-2.31,2.77l2.56,4.23Zm-2.21-8.83h-2V34.3h2a1.83,1.83,0,1,0,0-3.62Z" style="fill:#fff"/><path d="M446.19,25.73c-.31,0-.41.1-3.18.21s-8.24.22-19.15.22H410.61c-10.91,0-16.3-.1-19.15-.22s-2.87-.21-3.18-.21c-1.27,0-1.27.85-1.27,3.28v9.74c0,.53,0,1.8,1.06,1.8s1.37-.43,3.28-4.34c1.24-2.71,3.74-6.63,18.13-6.76,1.49.05,2.12.39,2.12,2.74v49.2c0,4.13,0,7-5.3,7.3-2.22.21-3.69.32-3.69,1.8s1.37,1.58,2.22,1.58c2,0,10.58-.42,12.38-.42,3.5,0,9,.42,12.49.42.85,0,2.22,0,2.22-1.58s-1.48-1.7-3.71-1.8c-5.29-.32-5.29-3.18-5.29-7.51V32.93c0-2.75.34-3.33,3.43-3.46,13.18.36,15.57,4.11,16.77,6.74,1.91,3.91,2.12,4.34,3.28,4.34s1.06-1.27,1.06-1.8V29C447.46,26.58,447.46,25.73,446.19,25.73Z" style="fill:#fff"/><path d="M331.8,75.25c-1,0-1.16.42-3.07,4.12-4.65,9-11.21,9-15.87,9-8.89,0-11.11-1.16-11.11-8.68V61.5c0-3.17.84-3.17,5.92-3.17,8.68,0,11.65.1,13.87,8.26.53,2,1.16,2.54,2,2.54,1.27,0,1.27-1.48,1.27-2.12,0-.85-.32-4.55-.32-5.29,0-2.33.74-13.23.74-14.7,0-1.16-.53-1.49-1.16-1.49s-1.06.22-1.59,1.59c-1.91,5.61-2.85,7.93-14.6,7.93-6.13,0-6.13-.85-6.13-4.23V35.46c0-5.29.42-6,5.71-6,15,0,17.56,4,18.84,6.77,1.91,3.91,2.12,4.34,3.28,4.34s1.06-1.27,1.06-1.8V29c0-2.43,0-3.28-1.27-3.28-.32,0-.42.1-3.17.21s-8.26.22-19.15.22H302c-9,0-13.55-.1-15.87-.22a23.93,23.93,0,0,1-2.65-.21c-.74,0-2.12,0-2.12,1.49s1.49,1.69,3.81,1.79c5.29.32,5.29,3.17,5.29,7.51V81.18c0,4.34,0,7.2-5.29,7.51-2.22.21-3.81.32-3.81,1.8s1.38,1.58,2.22,1.58,1.59-.11,3.29-.21,4.34-.21,8.68-.21h1.26c.64,0,5.61.1,11.65.21s13.54.21,18.93.21c3.08,0,4.13-1.16,4.23-3.18.32-3.91,1.49-10.69,1.49-12.06C333.07,76.21,332.76,75.25,331.8,75.25Z" style="fill:#fff"/><path d="M504.51,75.25c-1,0-1.16.42-3.07,4.12-4.65,9-11.21,9-15.87,9-8.89,0-11.11-1.16-11.11-8.68V61.5c0-3.17.84-3.17,5.92-3.17,8.68,0,11.65.1,13.87,8.26.53,2,1.16,2.54,2,2.54,1.27,0,1.27-1.48,1.27-2.12,0-.85-.32-4.55-.32-5.29,0-2.33.74-13.23.74-14.7,0-1.16-.53-1.49-1.16-1.49s-1.06.22-1.59,1.59c-1.91,5.61-2.85,7.93-14.6,7.93-6.13,0-6.13-.85-6.13-4.23V35.46c0-5.29.42-6,5.71-6,15,0,17.56,4,18.84,6.77,1.91,3.91,2.12,4.34,3.28,4.34s1.06-1.27,1.06-1.8V29c0-2.43,0-3.28-1.27-3.28-.32,0-.42.1-3.17.21s-8.26.22-19.15.22h-5.07c-9,0-13.55-.1-15.87-.22a23.93,23.93,0,0,1-2.65-.21c-.74,0-2.12,0-2.12,1.49s1.49,1.69,3.81,1.79c5.29.32,5.29,3.17,5.29,7.51V81.18c0,4.34,0,7.2-5.29,7.51-2.22.21-3.81.32-3.81,1.8s1.38,1.58,2.22,1.58,1.59-.11,3.29-.21,4.34-.21,8.68-.21h1.26c.64,0,5.61.1,11.65.21s13.54.21,18.93.21c3.08,0,4.13-1.16,4.23-3.18.32-3.91,1.49-10.69,1.49-12.06C505.78,76.21,505.46,75.25,504.51,75.25Z" style="fill:#fff"/><path d="M365.16,51.3c-8.64-3.56-14.9-6.26-14.9-13.93,0-4.2,3.4-10.31,11.77-10.23,9,.08,10.9,6,12.2,10.23,1.08,3.35,1.52,4,2.59,4,1.52,0,1.52-.87,1.52-3.24,0-9.5,0-10.47-1.3-11.23-1.51-.76-7.87-2.48-14.14-2.48-13.71,0-21.27,8.63-21.27,18.56,0,11.45,8.53,15.65,17.27,19.54C366.67,66.08,374,70.18,374,78.6c0,8.74-8.51,11.7-13,11.7-7.66,0-15.06-6.48-17.13-15.88-.21-1-.36-2.08-1.32-2.08-1.3,0-1.37,1.51-1.37,1.94a83,83,0,0,0,.57,9.92c.29,2.69.72,4.86,1.91,5.73,1.94,1.4,7.27,3.46,15.69,3.46,14.36,0,23.21-10,23.21-22C382.54,59.17,371.21,53.88,365.16,51.3Z" style="fill:#fff"/><path d="M110.78,24.42C90,24.42,74.4,39.31,74.4,58.74c0,20.61,17.35,34.65,36.06,34.65,18.19,0,35.94-14.68,35.94-35.62C146.4,39.2,130.79,24.42,110.78,24.42Zm.53,66c-14.25,0-24.41-16.54-24.41-33.93,0-15.25,9.53-29.11,22.62-29.11,16.78,0,24.33,18,24.33,30.82C133.85,73.78,126.08,90.42,111.31,90.42Z" style="fill:#fff"/><path d="M67.63,0a29.8,29.8,0,0,1-4.43.31c-4,.15-12,.3-27.87.3H32C16.85.61,11.31.45,7.35.31A38.91,38.91,0,0,1,3.06,0C2,0,0,0,0,2.14s2.3,2.3,5.5,2.6c7.65.46,7.65,4.59,7.65,10.86V78.92c0,5.08,0,8.6-6.52,9-2.74.26-4.55.39-4.55,2.22s1.68,1.95,2.73,1.95c2.48,0,13.27-.52,15.48-.52,4.31,0,11.3.52,15.59.52,1,0,2.73,0,2.73-1.95S36.79,88,34.05,87.91c-6.51-.39-6.51-3.91-6.51-9.25V55.18c0-4.34,0-6.06,2.49-6.74C31.66,48,38.71,48,43.2,48c3.82,0,13.61,0,15.75,8.25.31.77,1.32,4.73,1.68,5.81.26.77.85,2.52,2.44,2.44,1.83-.09,1.84-1.83,1.84-2.9l-.61-7.19C64,50.89,64,48.3,64,46.92c0-2.29.45-12.69.45-14.82,0-1.53-.46-2.52-1.83-2.61s-2.14,1.23-2.44,2.45C58.23,39.88,56,43.26,43.66,43.26c-2.29,0-11.37,0-13.67-.31-2-.31-2.44-.46-2.44-8.71V12.84c0-7.18,2.61-7.49,7.8-7.49,23.79,0,25.78,3.26,30.34,13.45.57,1.27,1.17,3.06,2.85,3.06s1.68-2.44,1.68-2.91V2.75C70.22.76,70.07,0,67.63,0Z" style="fill:#fff"/><path d="M208.17,88.9c-3-.44-4.44-3.07-6.55-6.77l-10.26-18.2c-2.44-4.44-3.71-5.07-5.09-5.92,3.6-.74,14.5-3.28,14.5-15.66,0-3.71-1.59-16.62-20.31-16.62-3.18,0-17.25.43-20.11.43-1.27,0-6.45-.43-7.51-.43-3.49,0-3.92,0-3.92,1.49s1.49,1.58,3.81,1.69c5.18.32,5.18,3.18,5.18,7.51V81.28c0,4.44,0,7.2-5.18,7.62-2.22.1-3.81.21-3.81,1.7s1.38,1.48,2.22,1.48c1.91,0,10.48-.42,12.28-.42.42,0,10.69.42,12.7.42.84,0,2.22.1,2.22-1.37s-1.49-1.7-3.81-1.8c-5.29-.32-5.29-3.18-5.29-7.62v-19c0-1.8.22-2.43,2-2.43,4.77,0,5.29.42,7.62,5L191.68,88.9c1.16,2.22,1.58,3.18,3.49,3.18h13.94c.74,0,1.79-.18,1.79-1.27S210.39,89.23,208.17,88.9ZM174.53,57.05c-5.29,0-5.29-.21-5.29-3.92V35.36c0-4.13.1-6.67,5-6.67,13.12,0,14.6,11.32,14.6,15.13C188.82,57.05,178.34,57.05,174.53,57.05Z" style="fill:#fff"/><path d="M274.55,88.9c-3-.44-4.44-3.07-6.55-6.77l-10.26-18.2c-2.44-4.44-3.71-5.07-5.09-5.92,3.6-.74,14.5-3.28,14.5-15.66,0-3.71-1.59-16.62-20.31-16.62-3.18,0-17.25.43-20.11.43-1.27,0-6.45-.43-7.51-.43-3.49,0-3.92,0-3.92,1.49s1.49,1.58,3.81,1.69c5.18.32,5.18,3.18,5.18,7.51V81.28c0,4.44,0,7.2-5.18,7.62-2.22.1-3.81.21-3.81,1.7s1.38,1.48,2.22,1.48c1.91,0,10.48-.42,12.28-.42.42,0,10.69.42,12.7.42.84,0,2.22.1,2.22-1.37s-1.49-1.7-3.81-1.8c-5.29-.32-5.29-3.18-5.29-7.62v-19c0-1.8.22-2.43,2-2.43,4.77,0,5.29.42,7.62,5L258.05,88.9c1.16,2.22,1.58,3.18,3.49,3.18h13.94c.74,0,1.79-.18,1.79-1.27S276.77,89.23,274.55,88.9ZM240.91,57.05c-5.29,0-5.29-.21-5.29-3.92V35.36c0-4.13.1-6.67,5-6.67,13.12,0,14.6,11.32,14.6,15.13C255.19,57.05,244.72,57.05,240.91,57.05Z" style="fill:#fff"/><path d="M571,88.9c-3-.44-4.44-3.07-6.55-6.77l-10.26-18.2c-2.44-4.44-3.71-5.07-5.09-5.92,3.6-.74,14.5-3.28,14.5-15.66,0-3.71-1.59-16.62-20.31-16.62-3.18,0-17.25.43-20.11.43-1.27,0-6.45-.43-7.51-.43-3.49,0-3.92,0-3.92,1.49s1.49,1.58,3.81,1.69c5.18.32,5.18,3.18,5.18,7.51V81.28c0,4.44,0,7.2-5.18,7.62-2.22.1-3.81.21-3.81,1.7s1.38,1.48,2.22,1.48c1.91,0,10.48-.42,12.28-.42.42,0,10.69.42,12.7.42.84,0,2.22.1,2.22-1.37s-1.49-1.7-3.81-1.8C532,88.58,532,85.72,532,81.28v-19c0-1.8.22-2.43,2-2.43,4.77,0,5.29.42,7.62,5L554.48,88.9c1.16,2.22,1.58,3.18,3.49,3.18h13.94c.74,0,1.79-.18,1.79-1.27S573.2,89.23,571,88.9ZM537.34,57.05c-5.29,0-5.29-.21-5.29-3.92V35.36c0-4.13.1-6.67,5-6.67,13.12,0,14.6,11.32,14.6,15.13C551.62,57.05,541.15,57.05,537.34,57.05Z" style="fill:#fff"/></g></g></svg>